# Blender 4.2.3 LTS
# www.blender.org
mtllib stone8.mtl
o Cube.007
v -1.150000 0.100000 -1.000000
v -1.000000 0.100000 -0.850000
v -1.043934 0.100000 -0.956066
v -1.000000 -0.100000 -0.850000
v -1.150000 -0.100000 -1.000000
v -1.043934 -0.100000 -0.956066
v -0.850000 -0.100000 3.000000
v -1.000000 -0.100000 2.850000
v -0.956066 -0.100000 2.956066
v -1.000000 0.100000 2.850000
v -0.850000 0.100000 3.000000
v -0.956066 0.100000 2.956066
v 0.850000 0.100000 3.000000
v 1.000000 0.100000 2.850000
v 0.956066 0.100000 2.956066
v 1.000000 -0.100000 2.850000
v 0.850000 -0.100000 3.000000
v 0.956066 -0.100000 2.956066
v 0.850000 -0.100000 -3.000000
v 1.000000 -0.100000 -2.850000
v 0.956066 -0.100000 -2.956066
v 1.000000 0.100000 -2.850000
v 0.850000 0.100000 -3.000000
v 0.956066 0.100000 -2.956066
v -3.000000 0.100000 -1.150000
v -2.850000 0.100000 -1.000000
v -2.956066 0.100000 -1.043934
v -2.850000 -0.100000 -1.000000
v -3.000000 -0.100000 -1.150000
v -2.956066 -0.100000 -1.043934
v -2.850000 0.100000 -3.000000
v -3.000000 0.100000 -2.850000
v -2.956066 0.100000 -2.956066
v -3.000000 -0.100000 -2.850000
v -2.850000 -0.100000 -3.000000
v -2.956066 -0.100000 -2.956066
vn -0.0000 -0.0000 -1.0000
vn -0.0000 1.0000 -0.0000
vn 1.0000 -0.0000 -0.0000
vn -0.0000 -0.0000 1.0000
vn -1.0000 -0.0000 -0.0000
vn -0.0000 -1.0000 -0.0000
vn -0.3827 -0.0000 0.9239
vn -0.9239 -0.0000 0.3827
vn 0.3827 -0.0000 0.9239
vn 0.9239 -0.0000 0.3827
vn 0.9239 -0.0000 -0.3827
vn 0.3827 -0.0000 -0.9239
vn -0.3827 -0.0000 -0.9239
vn -0.9239 -0.0000 -0.3827
vt 0.375000 0.490625
vt 0.375000 0.259375
vt 0.625000 0.259375
vt 0.625000 0.490625
vt 0.625000 0.506250
vt 0.878868 0.500595
vt 0.875000 0.509375
vt 0.375000 0.743750
vt 0.375000 0.506250
vt 0.625000 0.743750
vt 0.375000 0.768750
vt 0.625000 0.768750
vt 0.625000 0.981250
vt 0.375000 0.981250
vt 0.375000 0.250000
vt 0.625000 0.250000
vt 0.121132 0.500595
vt 0.365625 0.500000
vt 0.625000 0.240625
vt 0.375000 0.240625
vt 0.375000 0.009375
vt 0.625000 0.009375
vt 0.625000 1.000000
vt 0.375000 1.000000
vt 0.375000 0.000000
vt 0.625000 0.000000
vt 0.375000 0.750000
vt 0.625000 0.750000
vt 0.375000 0.500000
vt 0.625000 0.500000
vt 0.875000 0.740625
vt 0.869418 0.747632
vt 0.856250 0.750000
vt 0.643750 0.750000
vt 0.630347 0.748068
vt 0.628082 0.501577
vt 0.634375 0.500000
vt 0.865625 0.500000
vt 0.875000 0.500000
vt 0.872337 0.500251
vt 0.873508 0.500184
vt 0.134375 0.500000
vt 0.125000 0.500000
vt 0.371918 0.501577
vt 0.125000 0.509375
vt 0.369653 0.748068
vt 0.356250 0.750000
vt 0.143750 0.750000
vt 0.125000 0.740625
vt 0.130582 0.747632
vt 0.127663 0.500251
vt 0.126492 0.500184
s 0
usemtl Material.007
f 19/1/1 35/2/1 31/3/1 23/4/1
f 22/5/2 3/6/2 2/7/2
f 16/8/3 20/9/3 22/5/3 14/10/3
f 17/11/4 13/12/4 11/13/4 7/14/4
f 29/15/5 25/16/5 32/16/5 34/15/5
f 20/9/6 6/17/6 19/18/6
f 2/19/5 4/20/5 8/21/5 10/22/5
f 1/16/7 5/15/7 6/15/7 3/16/7
f 3/16/8 6/15/8 4/20/8 2/19/8
f 7/14/7 11/13/7 12/23/7 9/24/7
f 9/25/8 12/26/8 10/22/8 8/21/8
f 13/12/9 17/11/9 18/27/9 15/28/9
f 15/28/10 18/27/10 16/8/10 14/10/10
f 22/5/11 20/9/11 21/29/11 24/30/11
f 24/30/12 21/29/12 19/1/12 23/4/12
f 25/16/8 29/15/8 30/15/8 27/16/8
f 27/16/7 30/15/7 28/15/7 26/16/7
f 31/3/13 35/2/13 36/15/13 33/16/13
f 33/16/14 36/15/14 34/15/14 32/16/14
f 5/15/4 1/16/4 26/16/4 28/15/4
f 2/7/2 10/31/2 14/10/2
f 10/31/2 12/32/2 11/33/2
f 13/34/2 10/31/2 11/33/2
f 13/34/2 15/35/2 14/10/2
f 14/10/2 22/5/2 2/7/2
f 22/5/2 24/36/2 23/37/2
f 3/6/2 22/5/2 23/37/2
f 23/37/2 31/38/2 1/39/2
f 3/6/2 23/37/2 1/39/2
f 31/38/2 33/40/2 32/39/2
f 32/39/2 25/39/2 26/39/2
f 25/39/2 27/41/2 26/39/2
f 26/39/2 1/39/2 32/39/2
f 31/38/2 32/39/2 1/39/2
f 13/34/2 14/10/2 10/31/2
f 35/42/6 19/18/6 5/43/6
f 19/18/6 21/44/6 20/9/6
f 5/43/6 19/18/6 6/17/6
f 20/9/6 16/8/6 4/45/6
f 16/8/6 18/46/6 17/47/6
f 17/47/6 7/48/6 8/49/6
f 7/48/6 9/50/6 8/49/6
f 8/49/6 4/45/6 16/8/6
f 17/47/6 8/49/6 16/8/6
f 20/9/6 4/45/6 6/17/6
f 36/51/6 35/42/6 34/43/6
f 29/43/6 34/43/6 35/42/6
f 28/43/6 30/52/6 29/43/6
f 5/43/6 28/43/6 29/43/6
f 35/42/6 5/43/6 29/43/6
