# Blender 4.2.3 LTS
# www.blender.org
mtllib stone4.mtl
o Cube.003
v 2.000000 0.100000 -1.850000
v 1.850000 0.100000 -2.000000
v 1.956066 0.100000 -1.956066
v 1.850000 -0.100000 -2.000000
v 2.000000 -0.100000 -1.850000
v 1.956066 -0.100000 -1.956066
v 1.850000 0.100000 2.000000
v 2.000000 0.100000 1.850000
v 1.956066 0.100000 1.956066
v 2.000000 -0.100000 1.850000
v 1.850000 -0.100000 2.000000
v 1.956066 -0.100000 1.956066
v 0.000000 0.100000 1.850000
v 0.150000 0.100000 2.000000
v 0.043934 0.100000 1.956066
v 0.150000 -0.100000 2.000000
v 0.000000 -0.100000 1.850000
v 0.043934 -0.100000 1.956066
v 0.000000 -0.100000 0.150000
v -0.150000 -0.100000 0.000000
v -0.043934 -0.100000 0.043934
v -0.150000 0.100000 0.000000
v 0.000000 0.100000 0.150000
v -0.043934 0.100000 0.043934
v -1.850000 0.100000 -2.000000
v -2.000000 0.100000 -1.850000
v -1.956066 0.100000 -1.956066
v -2.000000 -0.100000 -1.850000
v -1.850000 -0.100000 -2.000000
v -1.956066 -0.100000 -1.956066
v -2.000000 0.100000 -0.150000
v -1.850000 0.100000 0.000000
v -1.956066 0.100000 -0.043934
v -1.850000 -0.100000 0.000000
v -2.000000 -0.100000 -0.150000
v -1.956066 -0.100000 -0.043934
vn -1.0000 -0.0000 -0.0000
vn -0.0000 -0.0000 1.0000
vn -0.0000 -1.0000 -0.0000
vn -0.0000 -0.0000 -1.0000
vn -0.0000 1.0000 -0.0000
vn 0.9239 -0.0000 -0.3827
vn 0.3827 -0.0000 -0.9239
vn -0.3827 -0.0000 0.9239
vn -0.9239 -0.0000 0.3827
vn 0.3827 -0.0000 0.9239
vn 0.9239 -0.0000 0.3827
vn -0.3827 -0.0000 -0.9239
vn -0.9239 -0.0000 -0.3827
vn 1.0000 -0.0000 -0.0000
vt 0.375000 0.009375
vt 0.625000 0.009375
vt 0.625000 0.115625
vt 0.375000 0.115625
vt 0.375000 0.134375
vt 0.625000 0.134375
vt 0.625000 0.240625
vt 0.375000 0.240625
vt 0.375000 0.768750
vt 0.625000 0.768750
vt 0.625000 0.981250
vt 0.375000 0.981250
vt 0.375000 0.509375
vt 0.121135 0.627746
vt 0.365625 0.500000
vt 0.375000 0.125000
vt 0.625000 0.125000
vt 0.375000 0.490625
vt 0.375000 0.259375
vt 0.625000 0.259375
vt 0.625000 0.490625
vt 0.634375 0.500000
vt 0.878865 0.627746
vt 0.625000 0.509375
vt 0.375000 0.509375
vt 0.375000 0.500000
vt 0.625000 0.500000
vt 0.625000 1.000000
vt 0.375000 1.000000
vt 0.375000 0.000000
vt 0.625000 0.000000
vt 0.375000 0.750000
vt 0.625000 0.750000
vt 0.375000 0.740625
vt 0.625000 0.740625
vt 0.375000 0.250000
vt 0.625000 0.250000
vt 0.134375 0.500000
vt 0.125000 0.625000
vt 0.371917 0.502746
vt 0.375000 0.740625
vt 0.125000 0.634375
vt 0.369843 0.747254
vt 0.356250 0.750000
vt 0.143750 0.750000
vt 0.130695 0.747254
vt 0.125000 0.740625
vt 0.127594 0.502746
vt 0.125000 0.509375
vt 0.125000 0.615625
vt 0.126311 0.622254
vt 0.875000 0.634375
vt 0.628083 0.502746
vt 0.865625 0.500000
vt 0.875000 0.625000
vt 0.872406 0.502746
vt 0.875000 0.509375
vt 0.875000 0.615625
vt 0.873689 0.622254
vt 0.630157 0.747254
vt 0.643750 0.750000
vt 0.856250 0.750000
vt 0.875000 0.740625
vt 0.869305 0.747254
s 0
usemtl Material.003
f 17/1/1 13/2/1 23/3/1 19/4/1
f 35/5/1 31/6/1 26/7/1 28/8/1
f 11/9/2 7/10/2 14/11/2 16/12/2
f 5/13/3 21/14/3 4/15/3
f 20/16/2 22/17/2 32/17/2 34/16/2
f 4/18/4 29/19/4 25/20/4 2/21/4
f 2/22/5 24/23/5 1/24/5
f 1/24/6 5/25/6 6/26/6 3/27/6
f 3/27/7 6/26/7 4/18/7 2/21/7
f 16/12/8 14/11/8 15/28/8 18/29/8
f 18/30/9 15/31/9 13/2/9 17/1/9
f 7/10/10 11/9/10 12/32/10 9/33/10
f 9/33/11 12/32/11 10/34/11 8/35/11
f 22/17/8 20/16/8 21/16/8 24/17/8
f 24/17/9 21/16/9 19/4/9 23/3/9
f 25/20/12 29/19/12 30/36/12 27/37/12
f 27/37/13 30/36/13 28/8/13 26/7/13
f 31/6/9 35/5/9 36/16/9 33/17/9
f 33/17/8 36/16/8 34/16/8 32/17/8
f 5/25/14 1/24/14 8/35/14 10/34/14
f 29/38/3 4/15/3 20/39/3
f 4/15/3 6/40/3 5/13/3
f 20/39/3 4/15/3 21/14/3
f 5/13/3 10/41/3 19/42/3
f 10/41/3 12/43/3 11/44/3
f 11/44/3 16/45/3 19/42/3
f 16/45/3 18/46/3 17/47/3
f 19/42/3 16/45/3 17/47/3
f 5/13/3 19/42/3 21/14/3
f 10/41/3 11/44/3 19/42/3
f 30/48/3 29/38/3 28/49/3
f 35/50/3 28/49/3 29/38/3
f 34/39/3 36/51/3 35/50/3
f 20/39/3 34/39/3 35/50/3
f 29/38/3 20/39/3 35/50/3
f 8/35/5 1/24/5 23/52/5
f 1/24/5 3/53/5 2/22/5
f 23/52/5 1/24/5 24/23/5
f 2/22/5 25/54/5 22/55/5
f 25/54/5 27/56/5 26/57/5
f 26/57/5 31/58/5 22/55/5
f 31/58/5 33/59/5 32/55/5
f 22/55/5 31/58/5 32/55/5
f 2/22/5 22/55/5 24/23/5
f 25/54/5 26/57/5 22/55/5
f 9/60/5 8/35/5 7/61/5
f 14/62/5 7/61/5 8/35/5
f 13/63/5 15/64/5 14/62/5
f 23/52/5 13/63/5 14/62/5
f 8/35/5 23/52/5 14/62/5
