# Blender 4.2.3 LTS
# www.blender.org
mtllib stone2.mtl
o Cube.001
v 1.000000 0.100000 -1.850000
v 0.850000 0.100000 -2.000000
v 0.956066 0.100000 -1.956066
v 0.850000 -0.100000 -2.000000
v 1.000000 -0.100000 -1.850000
v 0.956066 -0.100000 -1.956066
v 0.850000 0.100000 2.000000
v 1.000000 0.100000 1.850000
v 0.956066 0.100000 1.956066
v 1.000000 -0.100000 1.850000
v 0.850000 -0.100000 2.000000
v 0.956066 -0.100000 1.956066
v -0.850000 0.100000 -2.000000
v -1.000000 0.100000 -1.850000
v -0.956066 0.100000 -1.956066
v -1.000000 -0.100000 -1.850000
v -0.850000 -0.100000 -2.000000
v -0.956066 -0.100000 -1.956066
v -1.000000 0.100000 1.850000
v -0.850000 0.100000 2.000000
v -0.956066 0.100000 1.956066
v -0.850000 -0.100000 2.000000
v -1.000000 -0.100000 1.850000
v -0.956066 -0.100000 1.956066
vn -0.0000 -1.0000 -0.0000
vn -1.0000 -0.0000 -0.0000
vn -0.0000 -0.0000 1.0000
vn -0.0000 1.0000 -0.0000
vn 1.0000 -0.0000 -0.0000
vn 0.9239 -0.0000 -0.3827
vn 0.3827 -0.0000 -0.9239
vn -0.3827 -0.0000 0.9239
vn -0.9239 -0.0000 0.3827
vn 0.3827 -0.0000 0.9239
vn 0.9239 -0.0000 0.3827
vn -0.3827 -0.0000 -0.9239
vn -0.9239 -0.0000 -0.3827
vn -0.0000 -0.0000 -1.0000
vt 0.125000 0.509375
vt 0.356250 0.500000
vt 0.375000 0.509375
vt 0.375000 0.009375
vt 0.625000 0.009375
vt 0.625000 0.240625
vt 0.375000 0.240625
vt 0.375000 0.768750
vt 0.625000 0.768750
vt 0.625000 0.981250
vt 0.375000 0.981250
vt 0.625000 0.509375
vt 0.856250 0.500000
vt 0.875000 0.509375
vt 0.375000 0.509375
vt 0.625000 0.740625
vt 0.375000 0.740625
vt 0.375000 0.500000
vt 0.625000 0.500000
vt 0.375000 0.481250
vt 0.625000 0.481250
vt 0.625000 1.000000
vt 0.375000 1.000000
vt 0.375000 0.000000
vt 0.625000 0.000000
vt 0.375000 0.750000
vt 0.625000 0.750000
vt 0.625000 0.268750
vt 0.375000 0.268750
vt 0.375000 0.250000
vt 0.625000 0.250000
vt 0.125000 0.740625
vt 0.130492 0.502746
vt 0.143750 0.500000
vt 0.369508 0.502746
vt 0.375000 0.740625
vt 0.369508 0.747254
vt 0.356250 0.750000
vt 0.143750 0.750000
vt 0.130492 0.747254
vt 0.630492 0.502746
vt 0.643750 0.500000
vt 0.869508 0.502746
vt 0.875000 0.740625
vt 0.869508 0.747254
vt 0.856250 0.750000
vt 0.643750 0.750000
vt 0.630492 0.747254
s 0
usemtl Material.001
f 16/1/1 4/2/1 5/3/1
f 23/4/2 19/5/2 14/6/2 16/7/2
f 11/8/3 7/9/3 20/10/3 22/11/3
f 1/12/4 13/13/4 14/14/4
f 5/15/5 1/12/5 8/16/5 10/17/5
f 1/12/6 5/15/6 6/18/6 3/19/6
f 3/19/7 6/18/7 4/20/7 2/21/7
f 22/11/8 20/10/8 21/22/8 24/23/8
f 24/24/9 21/25/9 19/5/9 23/4/9
f 7/9/10 11/8/10 12/26/10 9/27/10
f 9/27/11 12/26/11 10/17/11 8/16/11
f 13/28/12 17/29/12 18/30/12 15/31/12
f 15/31/13 18/30/13 16/7/13 14/6/13
f 17/29/14 13/28/14 2/21/14 4/20/14
f 23/32/1 16/1/1 5/3/1
f 16/1/1 18/33/1 17/34/1
f 4/2/1 16/1/1 17/34/1
f 4/2/1 6/35/1 5/3/1
f 5/3/1 10/36/1 23/32/1
f 10/36/1 12/37/1 11/38/1
f 23/32/1 10/36/1 22/39/1
f 11/38/1 22/39/1 10/36/1
f 22/39/1 24/40/1 23/32/1
f 8/16/4 1/12/4 14/14/4
f 1/12/4 3/41/4 2/42/4
f 13/13/4 1/12/4 2/42/4
f 13/13/4 15/43/4 14/14/4
f 14/14/4 19/44/4 8/16/4
f 19/44/4 21/45/4 20/46/4
f 8/16/4 19/44/4 7/47/4
f 20/46/4 7/47/4 19/44/4
f 7/47/4 9/48/4 8/16/4
