# Blender 4.2.3 LTS
# www.blender.org
mtllib stone6.mtl
o Cube.005
v -1.000000 0.100000 -1.150000
v -1.150000 0.100000 -1.000000
v -1.043934 0.100000 -1.043934
v -1.150000 -0.100000 -1.000000
v -1.000000 -0.100000 -1.150000
v -1.043934 -0.100000 -1.043934
v -1.150000 0.100000 1.000000
v -1.000000 0.100000 1.150000
v -1.043934 0.100000 1.043934
v -1.000000 -0.100000 1.150000
v -1.150000 -0.100000 1.000000
v -1.043934 -0.100000 1.043934
v 0.850000 -0.100000 -3.000000
v 1.000000 -0.100000 -2.850000
v 0.956066 -0.100000 -2.956066
v -1.000000 -0.100000 -2.850000
v -0.850000 -0.100000 -3.000000
v -0.956066 -0.100000 -2.956066
v 1.000000 0.100000 -2.850000
v 0.850000 0.100000 -3.000000
v 0.956066 0.100000 -2.956066
v -0.850000 0.100000 -3.000000
v -1.000000 0.100000 -2.850000
v -0.956066 0.100000 -2.956066
v -0.850000 -0.100000 3.000000
v -1.000000 -0.100000 2.850000
v -0.956066 -0.100000 2.956066
v -1.000000 0.100000 2.850000
v -0.850000 0.100000 3.000000
v -0.956066 0.100000 2.956066
v 0.850000 0.100000 3.000000
v 1.000000 0.100000 2.850000
v 0.956066 0.100000 2.956066
v 1.000000 -0.100000 2.850000
v 0.850000 -0.100000 3.000000
v 0.956066 -0.100000 2.956066
v -3.000000 -0.100000 -0.850000
v -2.850000 -0.100000 -1.000000
v -2.956066 -0.100000 -0.956066
v -2.850000 -0.100000 1.000000
v -3.000000 -0.100000 0.850000
v -2.956066 -0.100000 0.956066
v -3.000000 0.100000 0.850000
v -2.850000 0.100000 1.000000
v -2.956066 0.100000 0.956066
v -2.850000 0.100000 -1.000000
v -3.000000 0.100000 -0.850000
v -2.956066 0.100000 -0.956066
vn -0.0000 -0.0000 1.0000
vn 1.0000 -0.0000 -0.0000
vn -0.0000 1.0000 -0.0000
vn -1.0000 -0.0000 -0.0000
vn -0.0000 -0.0000 -1.0000
vn -0.0000 -1.0000 -0.0000
vn -0.9239 -0.0000 0.3827
vn -0.3827 -0.0000 0.9239
vn -0.9239 -0.0000 -0.3827
vn -0.3827 -0.0000 -0.9239
vn 0.9239 -0.0000 -0.3827
vn 0.3827 -0.0000 -0.9239
vn 0.3827 -0.0000 0.9239
vn 0.9239 -0.0000 0.3827
vt 0.375000 0.000000
vt 0.625000 0.000000
vt 0.375000 0.768750
vt 0.625000 0.768750
vt 0.625000 0.981250
vt 0.375000 0.981250
vt 0.375000 0.743750
vt 0.375000 0.506250
vt 0.625000 0.506250
vt 0.625000 0.743750
vt 0.875000 0.750000
vt 0.875000 0.500000
vt 0.875000 0.518750
vt 0.375000 0.018750
vt 0.625000 0.018750
vt 0.625000 0.231250
vt 0.375000 0.231250
vt 0.375000 0.268750
vt 0.625000 0.268750
vt 0.625000 0.481250
vt 0.375000 0.481250
vt 0.125000 0.750000
vt 0.125000 0.731250
vt 0.125000 0.500000
vt 0.375000 0.250000
vt 0.625000 0.250000
vt 0.375000 0.500000
vt 0.625000 0.500000
vt 0.625000 1.000000
vt 0.375000 1.000000
vt 0.375000 0.750000
vt 0.625000 0.750000
vt 0.869498 0.748965
vt 0.856250 0.750000
vt 0.643750 0.750000
vt 0.630304 0.748151
vt 0.630304 0.501849
vt 0.643750 0.500000
vt 0.856250 0.500000
vt 0.869497 0.501035
vt 0.878210 0.497037
vt 0.878210 0.752963
vt 0.873842 0.744655
vt 0.875000 0.731250
vt 0.873842 0.505345
vt 0.369696 0.748151
vt 0.356250 0.750000
vt 0.143750 0.750000
vt 0.130502 0.748965
vt 0.356250 0.500000
vt 0.369696 0.501849
vt 0.130502 0.501035
vt 0.143750 0.500000
vt 0.121790 0.497037
vt 0.126158 0.505345
vt 0.125000 0.518750
vt 0.121790 0.752963
vt 0.126158 0.744655
s 0
usemtl Material.005
f 11/1/1 7/2/1 44/2/1 40/1/1
f 35/3/1 31/4/1 29/5/1 25/6/1
f 34/7/2 14/8/2 19/9/2 32/10/2
f 7/11/3 2/12/3 47/13/3
f 41/14/4 43/15/4 47/16/4 37/17/4
f 17/18/5 22/19/5 20/20/5 13/21/5
f 40/22/6 41/23/6 4/24/6
f 5/25/4 1/26/4 23/26/4 16/25/4
f 8/2/4 10/1/4 26/1/4 28/2/4
f 10/1/7 8/2/7 9/2/7 12/1/7
f 12/1/8 9/2/8 7/2/8 11/1/8
f 1/26/9 5/25/9 6/25/9 3/26/9
f 3/26/10 6/25/10 4/25/10 2/26/10
f 19/9/11 14/8/11 15/27/11 21/28/11
f 21/28/12 15/27/12 13/21/12 20/20/12
f 22/19/10 17/18/10 18/25/10 24/26/10
f 24/26/9 18/25/9 16/25/9 23/26/9
f 25/6/8 29/5/8 30/29/8 27/30/8
f 27/1/7 30/2/7 28/2/7 26/1/7
f 31/4/13 35/3/13 36/31/13 33/32/13
f 33/32/14 36/31/14 34/7/14 32/10/14
f 40/1/8 44/2/8 45/2/8 42/1/8
f 42/1/7 45/2/7 43/15/7 41/14/7
f 46/26/10 38/25/10 39/25/10 48/26/10
f 48/26/9 39/25/9 37/17/9 47/16/9
f 2/26/5 4/25/5 38/25/5 46/26/5
f 8/11/3 28/11/3 32/10/3
f 28/11/3 30/33/3 29/34/3
f 32/10/3 28/11/3 31/35/3
f 29/34/3 31/35/3 28/11/3
f 31/35/3 33/36/3 32/10/3
f 32/10/3 19/9/3 1/12/3
f 19/9/3 21/37/3 20/38/3
f 1/12/3 19/9/3 22/39/3
f 20/38/3 22/39/3 19/9/3
f 22/39/3 24/40/3 23/12/3
f 22/39/3 23/12/3 1/12/3
f 32/10/3 1/12/3 8/11/3
f 1/12/3 3/41/3 8/11/3
f 9/42/3 8/11/3 3/41/3
f 45/43/3 44/11/3 43/44/3
f 44/11/3 7/11/3 43/44/3
f 7/11/3 9/42/3 3/41/3
f 2/12/3 46/12/3 47/13/3
f 46/12/3 48/45/3 47/13/3
f 7/11/3 3/41/3 2/12/3
f 47/13/3 43/44/3 7/11/3
f 14/8/6 34/7/6 10/22/6
f 34/7/6 36/46/6 35/47/6
f 25/48/6 34/7/6 35/47/6
f 25/48/6 27/49/6 26/22/6
f 25/48/6 26/22/6 10/22/6
f 34/7/6 25/48/6 10/22/6
f 13/50/6 15/51/6 14/8/6
f 18/52/6 17/53/6 16/24/6
f 17/53/6 13/50/6 16/24/6
f 5/24/6 16/24/6 13/50/6
f 13/50/6 14/8/6 5/24/6
f 14/8/6 10/22/6 5/24/6
f 5/24/6 10/22/6 6/54/6
f 39/55/6 38/24/6 37/56/6
f 38/24/6 4/24/6 37/56/6
f 4/24/6 6/54/6 12/57/6
f 6/54/6 10/22/6 12/57/6
f 41/23/6 37/56/6 4/24/6
f 40/22/6 42/58/6 41/23/6
f 4/24/6 12/57/6 11/22/6
f 11/22/6 40/22/6 4/24/6
