# Blender 4.2.3 LTS
# www.blender.org
mtllib stone7.mtl
o Cube.006
v 1.850000 0.100000 1.000000
v 2.000000 0.100000 0.850000
v 1.956066 0.100000 0.956066
v 2.000000 -0.100000 0.850000
v 1.850000 -0.100000 1.000000
v 1.956066 -0.100000 0.956066
v 0.000000 0.100000 -1.150000
v -0.150000 0.100000 -1.000000
v -0.043934 0.100000 -1.043934
v -0.150000 -0.100000 -1.000000
v 0.000000 -0.100000 -1.150000
v -0.043934 -0.100000 -1.043934
v 0.000000 0.100000 1.150000
v 0.150000 0.100000 1.000000
v 0.043934 0.100000 1.043934
v 0.150000 -0.100000 1.000000
v 0.000000 -0.100000 1.150000
v 0.043934 -0.100000 1.043934
v 1.850000 -0.100000 -3.000000
v 2.000000 -0.100000 -2.850000
v 1.956066 -0.100000 -2.956066
v 0.000000 -0.100000 -2.850000
v 0.150000 -0.100000 -3.000000
v 0.043934 -0.100000 -2.956066
v 2.000000 0.100000 -2.850000
v 1.850000 0.100000 -3.000000
v 1.956066 0.100000 -2.956066
v 0.150000 0.100000 -3.000000
v 0.000000 0.100000 -2.850000
v 0.043934 0.100000 -2.956066
v -2.000000 -0.100000 -0.850000
v -1.850000 -0.100000 -1.000000
v -1.956066 -0.100000 -0.956066
v -1.850000 0.100000 -1.000000
v -2.000000 0.100000 -0.850000
v -1.956066 0.100000 -0.956066
v 0.000000 -0.100000 2.850000
v -0.150000 -0.100000 3.000000
v -0.043934 -0.100000 2.956066
v -0.150000 0.100000 3.000000
v 0.000000 0.100000 2.850000
v -0.043934 0.100000 2.956066
v -1.850000 -0.100000 3.000000
v -2.000000 -0.100000 2.850000
v -1.956066 -0.100000 2.956066
v -2.000000 0.100000 2.850000
v -1.850000 0.100000 3.000000
v -1.956066 0.100000 2.956066
vn -0.0000 1.0000 -0.0000
vn -0.0000 -0.0000 1.0000
vn -0.0000 -0.0000 -1.0000
vn 1.0000 -0.0000 -0.0000
vn -1.0000 -0.0000 -0.0000
vn -0.0000 -1.0000 -0.0000
vn 0.3827 -0.0000 0.9239
vn 0.9239 -0.0000 0.3827
vn -0.9239 -0.0000 -0.3827
vn -0.3827 -0.0000 -0.9239
vn 0.9239 -0.0000 -0.3827
vn 0.3827 -0.0000 -0.9239
vn -0.3827 -0.0000 0.9239
vn -0.9239 -0.0000 0.3827
vt 0.625000 0.500000
vt 0.643750 0.500000
vt 0.875000 0.500000
vt 0.375000 0.768750
vt 0.625000 0.768750
vt 0.625000 0.981250
vt 0.375000 0.981250
vt 0.875000 0.518750
vt 0.875000 0.750000
vt 0.625000 0.250000
vt 0.375000 0.250000
vt 0.375000 1.000000
vt 0.625000 1.000000
vt 0.375000 0.731250
vt 0.375000 0.500000
vt 0.625000 0.731250
vt 0.874029 0.505010
vt 0.125000 0.750000
vt 0.375000 0.268750
vt 0.625000 0.268750
vt 0.625000 0.481250
vt 0.375000 0.481250
vt 0.375000 0.750000
vt 0.625000 0.750000
vt 0.375000 0.231250
vt 0.625000 0.231250
vt 0.375000 0.000000
vt 0.625000 0.000000
vt 0.872707 0.752725
vt 0.874744 0.749391
vt 0.874987 0.749135
vt 0.856250 0.750000
vt 0.643750 0.750000
vt 0.629521 0.744990
vt 0.878199 0.497275
vt 0.630236 0.500609
vt 0.856250 0.500000
vt 0.869495 0.500865
vt 0.125000 0.500000
vt 0.370479 0.744990
vt 0.356250 0.750000
vt 0.121801 0.497275
vt 0.143750 0.750000
vt 0.356250 0.500000
vt 0.369765 0.500609
vt 0.130505 0.500865
vt 0.143750 0.500000
vt 0.127293 0.752725
vt 0.125971 0.505010
vt 0.125000 0.518750
vt 0.125013 0.749135
vt 0.125256 0.749391
s 0
usemtl Material.006
f 25/1/1 26/2/1 7/3/1
f 5/4/2 1/5/2 14/6/2 16/7/2
f 35/8/1 46/9/1 13/9/1
f 8/10/3 10/11/3 32/11/3 34/10/3
f 8/3/1 34/3/1 35/8/1
f 17/12/4 13/13/4 41/13/4 37/12/4
f 38/12/2 40/13/2 47/13/2 43/12/2
f 11/11/5 7/10/5 29/10/5 22/11/5
f 4/14/4 20/15/4 25/1/4 2/16/4
f 34/3/1 36/17/1 35/8/1
f 43/18/6 44/18/6 17/18/6
f 23/19/3 28/20/3 26/21/3 19/22/3
f 16/7/7 14/6/7 15/13/7 18/12/7
f 18/12/8 15/13/8 13/13/8 17/12/8
f 1/5/7 5/4/7 6/23/7 3/24/7
f 3/24/8 6/23/8 4/14/8 2/16/8
f 7/10/9 11/11/9 12/11/9 9/10/9
f 9/10/10 12/11/10 10/11/10 8/10/10
f 25/1/11 20/15/11 21/15/11 27/1/11
f 27/1/12 21/15/12 19/22/12 26/21/12
f 28/20/10 23/19/10 24/11/10 30/10/10
f 30/10/9 24/11/9 22/11/9 29/10/9
f 34/10/10 32/11/10 33/11/10 36/10/10
f 36/10/9 33/11/9 31/25/9 35/26/9
f 37/12/8 41/13/8 42/13/8 39/12/8
f 39/12/7 42/13/7 40/13/7 38/12/7
f 43/12/13 47/13/13 48/13/13 45/12/13
f 45/27/14 48/28/14 46/28/14 44/27/14
f 44/27/5 46/28/5 35/26/5 31/25/5
f 15/29/1 35/8/1 13/9/1
f 46/9/1 48/30/1 47/9/1
f 47/9/1 40/9/1 41/9/1
f 40/9/1 42/31/1 41/9/1
f 41/9/1 13/9/1 47/9/1
f 35/8/1 15/29/1 8/3/1
f 46/9/1 47/9/1 13/9/1
f 14/32/1 1/33/1 2/16/1
f 1/33/1 3/34/1 2/16/1
f 8/3/1 15/29/1 14/32/1
f 9/35/1 8/3/1 14/32/1
f 14/32/1 2/16/1 9/35/1
f 2/16/1 25/1/1 7/3/1
f 25/1/1 27/36/1 26/2/1
f 26/2/1 28/37/1 7/3/1
f 28/37/1 30/38/1 29/3/1
f 7/3/1 28/37/1 29/3/1
f 7/3/1 9/35/1 2/16/1
f 20/15/6 4/14/6 11/39/6
f 4/14/6 6/40/6 5/41/6
f 12/42/6 4/14/6 16/43/6
f 5/41/6 16/43/6 4/14/6
f 4/14/6 12/42/6 11/39/6
f 19/44/6 21/45/6 20/15/6
f 24/46/6 23/47/6 22/39/6
f 23/47/6 19/44/6 11/39/6
f 11/39/6 22/39/6 23/47/6
f 19/44/6 20/15/6 11/39/6
f 16/43/6 18/48/6 10/39/6
f 12/42/6 16/43/6 10/39/6
f 33/49/6 32/39/6 31/50/6
f 32/39/6 10/39/6 31/50/6
f 17/18/6 37/18/6 43/18/6
f 37/18/6 39/51/6 38/18/6
f 43/18/6 37/18/6 38/18/6
f 10/39/6 18/48/6 31/50/6
f 18/48/6 17/18/6 31/50/6
f 44/18/6 31/50/6 17/18/6
f 43/18/6 45/52/6 44/18/6
