# Blender 4.2.3 LTS
# www.blender.org
mtllib stone9.mtl
o Cube.008
v 2.000000 0.100000 -1.700000
v 1.700000 0.100000 -2.000000
v 1.912132 0.100000 -1.912132
v 1.700000 -0.100000 -2.000000
v 2.000000 -0.100000 -1.700000
v 1.912132 -0.100000 -1.912132
v 1.700000 0.100000 2.000000
v 2.000000 0.100000 1.700000
v 1.912132 0.100000 1.912132
v 2.000000 -0.100000 1.700000
v 1.700000 -0.100000 2.000000
v 1.912132 -0.100000 1.912132
v -1.700000 0.100000 -2.000000
v -2.000000 0.100000 -1.700000
v -1.912132 0.100000 -1.912132
v -2.000000 -0.100000 -1.700000
v -1.700000 -0.100000 -2.000000
v -1.912132 -0.100000 -1.912132
v -2.000000 0.100000 1.700000
v -1.700000 0.100000 2.000000
v -1.912132 0.100000 1.912132
v -1.700000 -0.100000 2.000000
v -2.000000 -0.100000 1.700000
v -1.912132 -0.100000 1.912132
vn -0.0000 -1.0000 -0.0000
vn -1.0000 -0.0000 -0.0000
vn -0.0000 -0.0000 1.0000
vn -0.0000 1.0000 -0.0000
vn 1.0000 -0.0000 -0.0000
vn 0.9239 -0.0000 -0.3827
vn 0.3827 -0.0000 -0.9239
vn -0.3827 -0.0000 0.9239
vn -0.9239 -0.0000 0.3827
vn 0.3827 -0.0000 0.9239
vn 0.9239 -0.0000 0.3827
vn -0.3827 -0.0000 -0.9239
vn -0.9239 -0.0000 -0.3827
vn -0.0000 -0.0000 -1.0000
vt 0.356250 0.750000
vt 0.125000 0.731250
vt 0.356250 0.500000
vt 0.375000 0.018750
vt 0.625000 0.018750
vt 0.625000 0.231250
vt 0.375000 0.231250
vt 0.125000 0.518750
vt 0.375000 0.768750
vt 0.625000 0.768750
vt 0.625000 0.981250
vt 0.375000 0.981250
vt 0.856250 0.750000
vt 0.625000 0.731250
vt 0.856250 0.500000
vt 0.375000 0.518750
vt 0.625000 0.518750
vt 0.375000 0.731250
vt 0.375000 0.500000
vt 0.625000 0.500000
vt 0.375000 0.481250
vt 0.625000 0.481250
vt 0.625000 1.000000
vt 0.375000 1.000000
vt 0.375000 0.000000
vt 0.625000 0.000000
vt 0.375000 0.750000
vt 0.625000 0.750000
vt 0.625000 0.268750
vt 0.375000 0.268750
vt 0.375000 0.250000
vt 0.625000 0.250000
vt 0.130492 0.505492
vt 0.143750 0.500000
vt 0.369508 0.505492
vt 0.369508 0.744508
vt 0.143750 0.750000
vt 0.130492 0.744508
vt 0.630492 0.505492
vt 0.643750 0.500000
vt 0.869508 0.505492
vt 0.875000 0.518750
vt 0.875000 0.731250
vt 0.869508 0.744508
vt 0.643750 0.750000
vt 0.630492 0.744508
s 0
usemtl Material.008
f 11/1/1 23/2/1 4/3/1
f 23/4/2 19/5/2 14/6/2 16/7/2
f 23/2/1 16/8/1 4/3/1
f 11/9/3 7/10/3 20/11/3 22/12/3
f 20/13/4 8/14/4 13/15/4
f 5/16/5 1/17/5 8/14/5 10/18/5
f 1/17/6 5/16/6 6/19/6 3/20/6
f 3/20/7 6/19/7 4/21/7 2/22/7
f 22/12/8 20/11/8 21/23/8 24/24/8
f 24/25/9 21/26/9 19/5/9 23/4/9
f 7/10/10 11/9/10 12/27/10 9/28/10
f 9/28/11 12/27/11 10/18/11 8/14/11
f 13/29/12 17/30/12 18/31/12 15/32/12
f 15/32/13 18/31/13 16/7/13 14/6/13
f 17/30/14 13/29/14 2/22/14 4/21/14
f 16/8/1 18/33/1 17/34/1
f 4/3/1 16/8/1 17/34/1
f 4/3/1 6/35/1 5/16/1
f 5/16/1 10/18/1 11/1/1
f 10/18/1 12/36/1 11/1/1
f 11/1/1 22/37/1 23/2/1
f 22/37/1 24/38/1 23/2/1
f 4/3/1 5/16/1 11/1/1
f 8/14/4 1/17/4 13/15/4
f 1/17/4 3/39/4 2/40/4
f 13/15/4 1/17/4 2/40/4
f 13/15/4 15/41/4 14/42/4
f 14/42/4 19/43/4 20/13/4
f 19/43/4 21/44/4 20/13/4
f 20/13/4 7/45/4 8/14/4
f 7/45/4 9/46/4 8/14/4
f 13/15/4 14/42/4 20/13/4
